# xmcd
#
# Track frame offsets: 
#        150
#        13956
#        34692
#        52861
#        82972
#        99686
#        118568
#        137882
#        168345
#        180394
#        197352
#        219966
#        239344
#
# Disc length: 3468 seconds
#
# Revision: 0
# Processed by: cddbd v1.5.2PL0 Copyright (c) Steve Scherf et al.
# Submitted via: ExactAudioCopy v1.0b1
#
DISCID=a20d8a0d
DTITLE=Victory In Heaven Blues Band - V. I. H. II
DYEAR=2002
DGENRE=Christian Rock
TTITLE0=Theme From Peter Gunn
TTITLE1=Bluesman For Life
TTITLE2=Wrong Side Of The Blues
TTITLE3=Everybody Wants To Go To Heaven
TTITLE4=Nothin' But The Blues
TTITLE5=Aint Goin' Back Again
TTITLE6=Can't Judge A Book By The Cover
TTITLE7=Keep Me From Sinking Down
TTITLE8=At The Wheel
TTITLE9=Not What I Used To Be
TTITLE10=Take A Hand
TTITLE11=Lay My Burdens Down
TTITLE12=Judgement Day Blues
EXTD=
EXTT0=
EXTT1=
EXTT2=
EXTT3=
EXTT4=
EXTT5=
EXTT6=
EXTT7=
EXTT8=
EXTT9=
EXTT10=
EXTT11=
EXTT12=
PLAYORDER=
